<svg version="1" xmlns="http://www.w3.org/2000/svg" width="346.667" height="346.667" viewBox="0 0 260.000000 260.000000"><path d="M87.5 2.6c-2.1.7-5.3 2.7-7.1 4.5-4.4 4.3-9.9 15.1-10.5 20.6-.1.5-.5 1.5-.9 2.3-2.2 4.1-3 18.7-1.6 29.8l.7 6.4-3.1-.7c-6.6-1.5-20.1-2.1-24.5-1.2-1.1.3-4 .8-6.5 1.3-2.5.4-4.7.8-5 .9-2.3.4-11.3 4.4-14.5 6.4C5.9 78.4 2.7 84.2 3.1 93.8c.2 3.7.5 7.1.8 7.7.3.5.7 1.9.8 3 .2 1.1 1 4.2 1.9 6.8 2.4 7.2 2.9 10.5 2.9 18.7 0 8.1-.5 11-2.8 18-7.2 21.2-4.9 30 9.8 37.7 12.7 6.6 24 8.5 43.5 7.2 5.4-.3 6.4-.1 6.1 1.1-.7 2.7-1 27.4-.3 28.4.3.6.6 2.2.7 3.6.1 1.4 1.1 5.1 2.3 8.3 7.8 20.6 17.1 26.1 35.7 21.1 3.3-.8 6.7-1.7 7.5-2 12.5-3.3 20.2-4.3 25.7-3 4.4 1 17.9 4.7 20.3 5.7 1.4.5 4.8 1.1 7.7 1.3 12.5.9 21.6-8.7 26.9-28.4 1.7-6.7 2.4-23.7 1.2-31.7-.4-2.4-.4-4.3 0-4.3s2.5.5 4.7 1c2.2.6 8.3 1 13.5 1 18.9 0 37.1-7.1 43.5-16.8 4-6.1 3.9-12.4-.6-29.7-4.9-19.2-4.7-23.8 1.8-43.5 2.2-6.7 2.5-16.7.6-20.4-2.3-4.5-6.9-8.4-14.5-12.1-6-3-18.3-6.8-20.5-6.4-.4.1-1.2 0-1.8-.1-2-.4-17.1-.1-21.6.5l-4.5.6 1.1-6.8c2.3-13.8.2-29.6-5.6-41.9-7-14.9-16.4-19.2-32.4-14.8-3.3.9-7 1.8-8.1 1.9-1.2.2-3 .8-4.1 1.3-1.7.9-12.2 2.6-16.3 2.6-2.4 0-9.1-1.4-14-2.8-2.5-.8-7.2-2.2-10.4-3.1C97 1.2 92.2 1 87.5 2.6z"/></svg>