<?xml version="1.0" standalone="no"?>
<!DOCTYPE svg PUBLIC "-//W3C//DTD SVG 20010904//EN"
 "http://www.w3.org/TR/2001/REC-SVG-20010904/DTD/svg10.dtd">
<svg version="1.0" xmlns="http://www.w3.org/2000/svg"
 width="260.000000pt" height="260.000000pt" viewBox="0 0 260.000000 260.000000"
 preserveAspectRatio="xMidYMid meet">
<g transform="translate(0.000000,260.000000) scale(0.100000,-0.100000)"
fill="#000000" stroke="none">
<path d="M875 2574 c-21 -7 -53 -27 -71 -45 -44 -43 -99 -151 -105 -206 -1 -5
-5 -15 -9 -23 -22 -41 -30 -187 -16 -298 l7 -64 -31 7 c-66 15 -201 21 -245
12 -11 -3 -40 -8 -65 -13 -25 -4 -47 -8 -50 -9 -23 -4 -113 -44 -145 -64 -86
-55 -118 -113 -114 -209 2 -37 5 -71 8 -77 3 -5 7 -19 8 -30 2 -11 10 -42 19
-68 24 -72 29 -105 29 -187 0 -81 -5 -110 -28 -180 -72 -212 -49 -300 98 -377
127 -66 240 -85 435 -72 54 3 64 1 61 -11 -7 -27 -10 -274 -3 -284 3 -6 6 -22
7 -36 1 -14 11 -51 23 -83 78 -206 171 -261 357 -211 33 8 67 17 75 20 125 33
202 43 257 30 44 -10 179 -47 203 -57 14 -5 48 -11 77 -13 125 -9 216 87 269
284 17 67 24 237 12 317 -4 24 -4 43 0 43 4 0 25 -5 47 -10 22 -6 83 -10 135
-10 189 0 371 71 435 168 40 61 39 124 -6 297 -49 192 -47 238 18 435 22 67
25 167 6 204 -23 45 -69 84 -145 121 -60 30 -183 68 -205 64 -4 -1 -12 0 -18
1 -20 4 -171 1 -216 -5 l-45 -6 11 68 c23 138 2 296 -56 419 -70 149 -164 192
-324 148 -33 -9 -70 -18 -81 -19 -12 -2 -30 -8 -41 -13 -17 -9 -122 -26 -163
-26 -24 0 -91 14 -140 28 -25 8 -72 22 -104 31 -76 23 -124 25 -171 9z"/>
</g>
</svg>
