<?xml version="1.0" standalone="no"?>
<!DOCTYPE svg PUBLIC "-//W3C//DTD SVG 20010904//EN"
 "http://www.w3.org/TR/2001/REC-SVG-20010904/DTD/svg10.dtd">
<svg version="1.0" xmlns="http://www.w3.org/2000/svg"
 width="390.000000pt" height="390.000000pt" viewBox="0 0 390.000000 390.000000"
 preserveAspectRatio="xMidYMid meet">
<metadata>
Created by potrace 1.11, written by Peter Selinger 2001-2013
</metadata>
<g transform="translate(0.000000,390.000000) scale(0.100000,-0.100000)"
fill="#000000" stroke="none">
<path d="M1844 3667 c-24 -21 -31 -42 -53 -152 l-26 -128 -110 -37 c-60 -20
-147 -56 -192 -79 -46 -22 -87 -41 -93 -41 -6 0 -49 26 -94 59 -105 75 -118
81 -157 81 -27 0 -48 -15 -133 -98 -56 -54 -123 -118 -150 -143 -66 -59 -106
-116 -106 -150 0 -17 26 -65 72 -133 l71 -106 -55 -117 c-31 -65 -68 -155 -82
-200 l-27 -81 -97 -17 c-139 -23 -177 -39 -196 -79 -22 -47 -24 -462 -2 -505
19 -36 49 -48 179 -76 60 -13 110 -25 111 -27 2 -1 15 -41 30 -88 15 -47 50
-132 77 -189 27 -57 49 -108 49 -114 0 -5 -20 -37 -44 -71 -88 -123 -96 -138
-96 -175 0 -33 14 -49 179 -215 179 -179 180 -179 218 -174 21 3 76 29 123 57
47 28 99 53 115 56 22 5 58 -7 140 -43 61 -27 142 -60 182 -72 l71 -23 22
-116 c36 -193 33 -191 344 -191 l224 0 30 25 c26 21 34 41 52 121 27 117 59
159 142 188 29 11 97 39 152 63 54 23 113 43 130 43 21 0 59 -19 121 -60 98
-65 129 -73 180 -42 35 22 225 209 272 269 l33 41 -263 184 c-144 102 -284
200 -310 217 l-48 33 -67 -64 c-85 -82 -140 -119 -257 -174 -152 -72 -353
-106 -504 -84 -45 7 -84 16 -86 21 -3 4 15 41 41 80 135 211 223 460 293 834
48 252 101 710 101 873 0 60 2 61 80 31 137 -52 226 -108 330 -205 37 -35 73
-64 79 -64 6 0 41 18 76 39 88 54 461 313 509 354 l39 34 -144 147 c-145 150
-179 176 -223 176 -13 0 -72 -32 -132 -71 l-107 -71 -103 51 c-56 29 -144 66
-195 84 l-93 32 -22 110 c-12 61 -28 123 -35 138 -24 53 -46 57 -303 57 -232
0 -235 0 -262 -23z m501 -539 c0 -108 -2 -199 -5 -201 -3 -3 -28 -1 -55 5 -76
16 -289 12 -372 -6 -220 -48 -434 -182 -568 -356 -89 -115 -161 -277 -185
-416 -19 -104 -8 -328 20 -423 58 -203 184 -388 348 -512 70 -53 215 -130 280
-150 23 -7 42 -16 42 -20 0 -16 -93 -78 -141 -94 -76 -25 -178 -17 -253 20
-72 36 -175 135 -234 225 -212 322 -279 799 -167 1185 55 190 173 385 321 531
83 82 251 199 369 256 155 75 455 159 555 155 l45 -2 0 -197z"/>
</g>
</svg>
